# 3ds Max Wavefront OBJ Exporter v0.97b - (c)2007 guruware
# File Created: 11.12.2019 09:24:44

#
# object Box002
#

v  0.0220 0.1017 -0.1210
v  0.2796 0.1017 -0.1210
v  0.0220 0.2476 -0.1210
v  0.2796 0.2476 -0.1210
v  0.0220 0.1017 0.1210
v  0.2796 0.1017 0.1210
v  0.0220 0.2476 0.1210
v  0.2796 0.2476 0.1210
v  0.2295 0.2341 0.0310
v  0.2019 0.2341 0.0310
v  0.2295 0.2700 0.0310
v  0.2019 0.2700 0.0310
v  0.2295 0.2341 0.0189
v  0.2019 0.2341 0.0189
v  0.2295 0.2700 0.0189
v  0.2019 0.2700 0.0189
v  -0.3433 0.2298 -0.0060
v  -0.3157 0.2298 -0.0060
v  -0.3433 0.2657 -0.0060
v  -0.3157 0.2657 -0.0060
v  -0.3433 0.2298 0.0060
v  -0.3157 0.2298 0.0060
v  -0.3433 0.2657 0.0060
v  -0.3157 0.2657 0.0060
v  0.2019 0.2341 -0.0310
v  0.2295 0.2341 -0.0310
v  0.2019 0.2700 -0.0310
v  0.2295 0.2700 -0.0310
v  0.2019 0.2341 -0.0190
v  0.2295 0.2341 -0.0190
v  0.2019 0.2700 -0.0190
v  0.2295 0.2700 -0.0190
v  0.2229 0.1307 -0.0060
v  0.2428 0.1115 -0.0060
v  0.3174 0.2284 -0.0060
v  0.3373 0.2092 -0.0060
v  0.2229 0.1307 0.0060
v  0.2428 0.1115 0.0060
v  0.3174 0.2284 0.0060
v  0.3373 0.2092 0.0060
v  0.2567 -0.2477 0.0000
v  0.3542 -0.2254 0.0000
v  0.3483 -0.2268 -0.0342
v  0.3314 -0.2306 -0.0643
v  0.3054 -0.2366 -0.0866
v  0.2736 -0.2438 -0.0985
v  0.2397 -0.2516 -0.0985
v  0.2079 -0.2588 -0.0866
v  0.1820 -0.2648 -0.0643
v  0.1651 -0.2686 -0.0342
v  0.1592 -0.2700 0.0000
v  0.1651 -0.2686 0.0342
v  0.1820 -0.2648 0.0643
v  0.2079 -0.2588 0.0866
v  0.2397 -0.2516 0.0985
v  0.2736 -0.2438 0.0985
v  0.3054 -0.2366 0.0866
v  0.3314 -0.2306 0.0643
v  0.3483 -0.2268 0.0342
v  0.2539 0.2133 0.0000
v  0.2481 0.2119 -0.0342
v  0.2311 0.2081 -0.0643
v  0.2052 0.2021 -0.0866
v  0.1734 0.1949 -0.0985
v  0.1395 0.1871 -0.0985
v  0.1077 0.1799 -0.0866
v  0.0818 0.1739 -0.0643
v  0.0648 0.1701 -0.0342
v  0.0590 0.1687 0.0000
v  0.0648 0.1701 0.0342
v  0.0818 0.1739 0.0643
v  0.1077 0.1799 0.0866
v  0.1395 0.1871 0.0985
v  0.1734 0.1949 0.0985
v  0.2052 0.2021 0.0866
v  0.2311 0.2081 0.0643
v  0.2481 0.2119 0.0342
v  0.1565 0.1910 0.0000
v  -0.3542 0.1945 0.0000
v  -0.3542 0.1445 0.0000
v  -0.3542 0.1476 -0.0171
v  -0.3542 0.1562 -0.0321
v  -0.3542 0.1695 -0.0433
v  -0.3542 0.1859 -0.0492
v  -0.3542 0.2032 -0.0492
v  -0.3542 0.2195 -0.0433
v  -0.3542 0.2328 -0.0321
v  -0.3542 0.2415 -0.0171
v  -0.3542 0.2445 0.0000
v  -0.3542 0.2415 0.0171
v  -0.3542 0.2328 0.0321
v  -0.3542 0.2195 0.0433
v  -0.3542 0.2032 0.0492
v  -0.3542 0.1859 0.0492
v  -0.3542 0.1695 0.0433
v  -0.3542 0.1562 0.0321
v  -0.3542 0.1476 0.0171
v  0.0958 0.1445 0.0000
v  0.0958 0.1476 -0.0171
v  0.0958 0.1562 -0.0321
v  0.0958 0.1695 -0.0433
v  0.0958 0.1859 -0.0492
v  0.0958 0.2032 -0.0492
v  0.0958 0.2195 -0.0433
v  0.0958 0.2328 -0.0321
v  0.0958 0.2415 -0.0171
v  0.0958 0.2445 0.0000
v  0.0958 0.2415 0.0171
v  0.0958 0.2328 0.0321
v  0.0958 0.2195 0.0433
v  0.0958 0.2032 0.0492
v  0.0958 0.1859 0.0492
v  0.0958 0.1695 0.0433
v  0.0958 0.1562 0.0321
v  0.0958 0.1476 0.0171
v  0.0958 0.1945 0.0000
# 116 vertices

vn 0.0000 0.0000 -1.0000
vn 0.0000 -0.0000 1.0000
vn 0.0000 -1.0000 -0.0000
vn 1.0000 0.0000 -0.0000
vn 0.0000 1.0000 0.0000
vn -1.0000 0.0000 -0.0000
vn 0.0000 0.0000 1.0000
vn 0.0000 -0.0000 -1.0000
vn 0.0000 -1.0000 0.0000
vn -0.0000 1.0000 -0.0000
vn 0.0000 1.0000 -0.0000
vn -0.6954 -0.7186 -0.0000
vn 0.7186 -0.6954 -0.0000
vn 0.6954 0.7186 0.0000
vn -0.7186 0.6954 0.0000
vn 0.2227 -0.9749 -0.0000
vn 0.2227 -0.9749 0.0000
vn 0.9749 0.2227 0.0000
vn 0.9161 0.2093 -0.3420
vn 0.7468 0.1706 -0.6428
vn 0.4874 0.1114 -0.8660
vn 0.1693 0.0387 -0.9848
vn -0.1693 -0.0387 -0.9848
vn -0.4874 -0.1114 -0.8660
vn -0.7468 -0.1706 -0.6428
vn -0.9161 -0.2093 -0.3420
vn -0.9749 -0.2227 -0.0000
vn -0.9161 -0.2093 0.3420
vn -0.7468 -0.1706 0.6428
vn -0.4874 -0.1114 0.8660
vn -0.1693 -0.0387 0.9848
vn 0.1693 0.0387 0.9848
vn 0.4874 0.1114 0.8660
vn 0.7468 0.1706 0.6428
vn 0.9161 0.2093 0.3420
vn -0.2227 0.9749 0.0000
vn -0.2227 0.9749 -0.0000
vn -0.0000 -1.0000 0.0000
vn -0.0000 -0.9397 -0.3420
vn -0.0000 -0.7660 -0.6428
vn -0.0000 -0.5000 -0.8660
vn -0.0000 -0.1736 -0.9848
vn 0.0000 0.1736 -0.9848
vn 0.0000 0.5000 -0.8660
vn 0.0000 0.7660 -0.6428
vn 0.0000 0.9397 -0.3420
vn 0.0000 0.9397 0.3420
vn 0.0000 0.7660 0.6428
vn 0.0000 0.5000 0.8660
vn 0.0000 0.1736 0.9848
vn -0.0000 -0.1736 0.9848
vn -0.0000 -0.5000 0.8660
vn -0.0000 -0.7660 0.6428
vn -0.0000 -0.9397 0.3420
# 54 vertex normals

vt 1.0000 0.0000 0.0000
vt 1.0000 1.0000 0.0000
vt 0.0000 1.0000 0.0000
vt 0.0000 0.0000 0.0000
vt 0.5000 0.0000 0.0000
vt 0.8056 0.0000 1.0000
vt 0.7500 0.0000 1.0000
vt 0.8611 0.0000 1.0000
vt 0.9167 0.0000 1.0000
vt 0.9722 0.0000 1.0000
vt 0.0278 0.0000 1.0000
vt -0.0278 0.0000 1.0000
vt 0.0833 0.0000 1.0000
vt 0.1389 0.0000 1.0000
vt 0.1944 0.0000 1.0000
vt 0.2500 0.0000 1.0000
vt 0.3056 0.0000 1.0000
vt 0.3611 0.0000 1.0000
vt 0.4167 0.0000 1.0000
vt 0.4722 0.0000 1.0000
vt 0.5278 0.0000 1.0000
vt 0.5833 0.0000 1.0000
vt 0.6389 0.0000 1.0000
vt 0.6944 0.0000 1.0000
vt 0.8056 1.0000 1.0000
vt 0.7500 1.0000 1.0000
vt 0.8611 1.0000 1.0000
vt 0.9167 1.0000 1.0000
vt 0.9722 1.0000 1.0000
vt 0.0278 1.0000 1.0000
vt -0.0278 1.0000 1.0000
vt 0.0833 1.0000 1.0000
vt 0.1389 1.0000 1.0000
vt 0.1944 1.0000 1.0000
vt 0.2500 1.0000 1.0000
vt 0.3056 1.0000 1.0000
vt 0.3611 1.0000 1.0000
vt 0.4167 1.0000 1.0000
vt 0.4722 1.0000 1.0000
vt 0.5278 1.0000 1.0000
vt 0.5833 1.0000 1.0000
vt 0.6389 1.0000 1.0000
vt 0.6944 1.0000 1.0000
vt 0.5000 1.0000 0.0000
# 44 texture coords

o Box002
g Box002
f 1/1/1 3/2/1 4/3/1 
f 4/3/1 2/4/1 1/1/1 
f 5/4/2 6/1/2 8/2/2 
f 8/2/2 7/3/2 5/4/2 
f 1/4/3 2/1/3 6/2/3 
f 6/2/3 5/3/3 1/4/3 
f 2/4/4 4/1/4 8/2/4 
f 8/2/4 6/3/4 2/4/4 
f 4/4/5 3/1/5 7/2/5 
f 7/2/5 8/3/5 4/4/5 
f 3/4/6 1/1/6 5/2/6 
f 5/2/6 7/3/6 3/4/6 
f 9/1/7 11/2/7 12/3/7 
f 12/3/7 10/4/7 9/1/7 
f 13/4/8 14/1/8 16/2/8 
f 16/2/8 15/3/8 13/4/8 
f 9/4/9 10/1/9 14/2/9 
f 14/2/9 13/3/9 9/4/9 
f 10/4/6 12/1/6 16/2/6 
f 16/2/6 14/3/6 10/4/6 
f 12/4/10 11/1/10 15/2/10 
f 15/2/10 16/3/11 12/4/10 
f 11/4/4 9/1/4 13/2/4 
f 13/2/4 15/3/4 11/4/4 
f 17/1/1 19/2/1 20/3/1 
f 20/3/1 18/4/1 17/1/1 
f 21/4/2 22/1/2 24/2/2 
f 24/2/2 23/3/2 21/4/2 
f 17/4/3 18/1/3 22/2/3 
f 22/2/3 21/3/3 17/4/3 
f 18/4/4 20/1/4 24/2/4 
f 24/2/4 22/3/4 18/4/4 
f 20/4/5 19/1/5 23/2/5 
f 23/2/5 24/3/5 20/4/5 
f 19/4/6 17/1/6 21/2/6 
f 21/2/6 23/3/6 19/4/6 
f 25/1/1 27/2/1 28/3/1 
f 28/3/1 26/4/1 25/1/1 
f 29/4/2 30/1/2 32/2/2 
f 32/2/2 31/3/2 29/4/2 
f 25/4/3 26/1/3 30/2/3 
f 30/2/3 29/3/3 25/4/3 
f 26/4/4 28/1/4 32/2/4 
f 32/2/4 30/3/4 26/4/4 
f 28/4/5 27/1/5 31/2/5 
f 31/2/5 32/3/5 28/4/5 
f 27/4/6 25/1/6 29/2/6 
f 29/2/6 31/3/6 27/4/6 
f 33/1/1 35/2/1 36/3/1 
f 36/3/1 34/4/1 33/1/1 
f 37/4/2 38/1/2 40/2/2 
f 40/2/2 39/3/2 37/4/2 
f 33/4/12 34/1/12 38/2/12 
f 38/2/12 37/3/12 33/4/12 
f 34/4/13 36/1/13 40/2/13 
f 40/2/13 38/3/13 34/4/13 
f 36/4/14 35/1/14 39/2/14 
f 39/2/14 40/3/14 36/4/14 
f 35/4/15 33/1/15 37/2/15 
f 37/2/15 39/3/15 35/4/15 
f 41/5/16 43/6/17 42/7/16 
f 41/5/16 44/8/16 43/6/17 
f 41/5/16 45/9/16 44/8/16 
f 41/5/16 46/10/17 45/9/16 
f 41/5/16 47/11/16 46/12/17 
f 41/5/16 48/13/16 47/11/16 
f 41/5/16 49/14/16 48/13/16 
f 41/5/16 50/15/16 49/14/16 
f 41/5/16 51/16/17 50/15/16 
f 41/5/16 52/17/17 51/16/17 
f 41/5/16 53/18/17 52/17/17 
f 41/5/16 54/19/16 53/18/17 
f 41/5/16 55/20/16 54/19/16 
f 41/5/16 56/21/17 55/20/16 
f 41/5/16 57/22/16 56/21/17 
f 41/5/16 58/23/17 57/22/16 
f 41/5/16 59/24/17 58/23/17 
f 41/5/16 42/7/16 59/24/17 
f 42/7/18 61/25/19 60/26/18 
f 42/7/18 43/6/19 61/25/19 
f 43/6/19 62/27/20 61/25/19 
f 43/6/19 44/8/20 62/27/20 
f 44/8/20 63/28/21 62/27/20 
f 44/8/20 45/9/21 63/28/21 
f 45/9/21 64/29/22 63/28/21 
f 45/9/21 46/10/22 64/29/22 
f 46/12/22 65/30/23 64/31/22 
f 46/12/22 47/11/23 65/30/23 
f 47/11/23 66/32/24 65/30/23 
f 47/11/23 48/13/24 66/32/24 
f 48/13/24 67/33/25 66/32/24 
f 48/13/24 49/14/25 67/33/25 
f 49/14/25 68/34/26 67/33/25 
f 49/14/25 50/15/26 68/34/26 
f 50/15/26 69/35/27 68/34/26 
f 50/15/26 51/16/27 69/35/27 
f 51/16/27 70/36/28 69/35/27 
f 51/16/27 52/17/28 70/36/28 
f 52/17/28 71/37/29 70/36/28 
f 52/17/28 53/18/29 71/37/29 
f 53/18/29 72/38/30 71/37/29 
f 53/18/29 54/19/30 72/38/30 
f 54/19/30 73/39/31 72/38/30 
f 54/19/30 55/20/31 73/39/31 
f 55/20/31 74/40/32 73/39/31 
f 55/20/31 56/21/32 74/40/32 
f 56/21/32 75/41/33 74/40/32 
f 56/21/32 57/22/33 75/41/33 
f 57/22/33 76/42/34 75/41/33 
f 57/22/33 58/23/34 76/42/34 
f 58/23/34 77/43/35 76/42/34 
f 58/23/34 59/24/35 77/43/35 
f 59/24/35 60/26/18 77/43/35 
f 59/24/35 42/7/18 60/26/18 
f 78/44/36 60/26/36 61/25/37 
f 78/44/36 61/25/37 62/27/36 
f 78/44/36 62/27/36 63/28/36 
f 78/44/36 63/28/36 64/29/37 
f 78/44/36 64/31/37 65/30/36 
f 78/44/36 65/30/36 66/32/36 
f 78/44/36 66/32/36 67/33/36 
f 78/44/36 67/33/36 68/34/36 
f 78/44/36 68/34/36 69/35/37 
f 78/44/36 69/35/37 70/36/37 
f 78/44/36 70/36/37 71/37/37 
f 78/44/36 71/37/37 72/38/36 
f 78/44/36 72/38/36 73/39/36 
f 78/44/36 73/39/36 74/40/37 
f 78/44/36 74/40/37 75/41/36 
f 78/44/36 75/41/36 76/42/37 
f 78/44/36 76/42/37 77/43/37 
f 78/44/36 77/43/37 60/26/36 
f 79/5/6 81/6/6 80/7/6 
f 79/5/6 82/8/6 81/6/6 
f 79/5/6 83/9/6 82/8/6 
f 79/5/6 84/10/6 83/9/6 
f 79/5/6 85/11/6 84/12/6 
f 79/5/6 86/13/6 85/11/6 
f 79/5/6 87/14/6 86/13/6 
f 79/5/6 88/15/6 87/14/6 
f 79/5/6 89/16/6 88/15/6 
f 79/5/6 90/17/6 89/16/6 
f 79/5/6 91/18/6 90/17/6 
f 79/5/6 92/19/6 91/18/6 
f 79/5/6 93/20/6 92/19/6 
f 79/5/6 94/21/6 93/20/6 
f 79/5/6 95/22/6 94/21/6 
f 79/5/6 96/23/6 95/22/6 
f 79/5/6 97/24/6 96/23/6 
f 79/5/6 80/7/6 97/24/6 
f 80/7/38 99/25/39 98/26/38 
f 80/7/38 81/6/39 99/25/39 
f 81/6/39 100/27/40 99/25/39 
f 81/6/39 82/8/40 100/27/40 
f 82/8/40 101/28/41 100/27/40 
f 82/8/40 83/9/41 101/28/41 
f 83/9/41 102/29/42 101/28/41 
f 83/9/41 84/10/42 102/29/42 
f 84/12/42 103/30/43 102/31/42 
f 84/12/42 85/11/43 103/30/43 
f 85/11/43 104/32/44 103/30/43 
f 85/11/43 86/13/44 104/32/44 
f 86/13/44 105/33/45 104/32/44 
f 86/13/44 87/14/45 105/33/45 
f 87/14/45 106/34/46 105/33/45 
f 87/14/45 88/15/46 106/34/46 
f 88/15/46 107/35/11 106/34/46 
f 88/15/46 89/16/11 107/35/11 
f 89/16/11 108/36/47 107/35/11 
f 89/16/11 90/17/47 108/36/47 
f 90/17/47 109/37/48 108/36/47 
f 90/17/47 91/18/48 109/37/48 
f 91/18/48 110/38/49 109/37/48 
f 91/18/48 92/19/49 110/38/49 
f 92/19/49 111/39/50 110/38/49 
f 92/19/49 93/20/50 111/39/50 
f 93/20/50 112/40/51 111/39/50 
f 93/20/50 94/21/51 112/40/51 
f 94/21/51 113/41/52 112/40/51 
f 94/21/51 95/22/52 113/41/52 
f 95/22/52 114/42/53 113/41/52 
f 95/22/52 96/23/53 114/42/53 
f 96/23/53 115/43/54 114/42/53 
f 96/23/53 97/24/54 115/43/54 
f 97/24/54 98/26/38 115/43/54 
f 97/24/54 80/7/38 98/26/38 
f 116/44/4 98/26/4 99/25/4 
f 116/44/4 99/25/4 100/27/4 
f 116/44/4 100/27/4 101/28/4 
f 116/44/4 101/28/4 102/29/4 
f 116/44/4 102/31/4 103/30/4 
f 116/44/4 103/30/4 104/32/4 
f 116/44/4 104/32/4 105/33/4 
f 116/44/4 105/33/4 106/34/4 
f 116/44/4 106/34/4 107/35/4 
f 116/44/4 107/35/4 108/36/4 
f 116/44/4 108/36/4 109/37/4 
f 116/44/4 109/37/4 110/38/4 
f 116/44/4 110/38/4 111/39/4 
f 116/44/4 111/39/4 112/40/4 
f 116/44/4 112/40/4 113/41/4 
f 116/44/4 113/41/4 114/42/4 
f 116/44/4 114/42/4 115/43/4 
f 116/44/4 115/43/4 98/26/4 
# 204 faces

