# 3ds Max Wavefront OBJ Exporter v0.97b - (c)2007 guruware
# File Created: 12.12.2019 12:28:32

#
# object Box002
#

v  0.0220 0.1017 -0.1210
v  0.2796 0.1017 -0.1210
v  0.0220 0.2476 -0.1210
v  0.2796 0.2476 -0.1210
v  0.0220 0.1017 0.1210
v  0.2796 0.1017 0.1210
v  0.0220 0.2476 0.1210
v  0.2796 0.2476 0.1210
v  0.2295 0.2341 0.0310
v  0.2019 0.2341 0.0310
v  0.2295 0.2700 0.0310
v  0.2019 0.2700 0.0310
v  0.2295 0.2341 0.0189
v  0.2019 0.2341 0.0189
v  0.2295 0.2700 0.0189
v  0.2019 0.2700 0.0189
v  -0.3433 0.2298 -0.0060
v  -0.3157 0.2298 -0.0060
v  -0.3433 0.2657 -0.0060
v  -0.3157 0.2657 -0.0060
v  -0.3433 0.2298 0.0060
v  -0.3157 0.2298 0.0060
v  -0.3433 0.2657 0.0060
v  -0.3157 0.2657 0.0060
v  0.2019 0.2341 -0.0310
v  0.2295 0.2341 -0.0310
v  0.2019 0.2700 -0.0310
v  0.2295 0.2700 -0.0310
v  0.2019 0.2341 -0.0190
v  0.2295 0.2341 -0.0190
v  0.2019 0.2700 -0.0190
v  0.2295 0.2700 -0.0190
v  0.2229 0.1307 -0.0060
v  0.2428 0.1115 -0.0060
v  0.3174 0.2284 -0.0060
v  0.3373 0.2092 -0.0060
v  0.2229 0.1307 0.0060
v  0.2428 0.1115 0.0060
v  0.3174 0.2284 0.0060
v  0.3373 0.2092 0.0060
v  0.2567 -0.2477 -0.0000
v  0.3542 -0.2254 -0.0000
v  0.3483 -0.2268 -0.0342
v  0.3314 -0.2306 -0.0643
v  0.3054 -0.2366 -0.0866
v  0.2736 -0.2438 -0.0985
v  0.2397 -0.2516 -0.0985
v  0.2079 -0.2588 -0.0866
v  0.1820 -0.2648 -0.0643
v  0.1651 -0.2686 -0.0342
v  0.1592 -0.2700 -0.0000
v  0.1651 -0.2686 0.0342
v  0.1820 -0.2648 0.0643
v  0.2079 -0.2588 0.0866
v  0.2397 -0.2516 0.0985
v  0.2736 -0.2438 0.0985
v  0.3054 -0.2366 0.0866
v  0.3314 -0.2306 0.0643
v  0.3483 -0.2268 0.0342
v  0.2539 0.2133 -0.0000
v  0.2481 0.2119 -0.0342
v  0.2311 0.2081 -0.0643
v  0.2052 0.2021 -0.0866
v  0.1734 0.1949 -0.0985
v  0.1395 0.1871 -0.0985
v  0.1077 0.1799 -0.0866
v  0.0818 0.1739 -0.0643
v  0.0648 0.1701 -0.0342
v  0.0590 0.1687 -0.0000
v  0.0648 0.1701 0.0342
v  0.0818 0.1739 0.0643
v  0.1077 0.1799 0.0866
v  0.1395 0.1871 0.0985
v  0.1734 0.1949 0.0985
v  0.2052 0.2021 0.0866
v  0.2311 0.2081 0.0643
v  0.2481 0.2119 0.0342
v  0.1565 0.1910 -0.0000
v  -0.3542 0.1945 -0.0000
v  -0.3542 0.1445 -0.0000
v  -0.3542 0.1476 -0.0171
v  -0.3542 0.1562 -0.0321
v  -0.3542 0.1695 -0.0433
v  -0.3542 0.1859 -0.0492
v  -0.3542 0.2032 -0.0492
v  -0.3542 0.2195 -0.0433
v  -0.3542 0.2328 -0.0321
v  -0.3542 0.2415 -0.0171
v  -0.3542 0.2445 -0.0000
v  -0.3542 0.2415 0.0171
v  -0.3542 0.2328 0.0321
v  -0.3542 0.2195 0.0433
v  -0.3542 0.2032 0.0492
v  -0.3542 0.1859 0.0492
v  -0.3542 0.1695 0.0433
v  -0.3542 0.1562 0.0321
v  -0.3542 0.1476 0.0171
v  0.0958 0.1445 -0.0000
v  0.0958 0.1476 -0.0171
v  0.0958 0.1562 -0.0321
v  0.0958 0.1695 -0.0433
v  0.0958 0.1859 -0.0492
v  0.0958 0.2032 -0.0492
v  0.0958 0.2195 -0.0433
v  0.0958 0.2328 -0.0321
v  0.0958 0.2415 -0.0171
v  0.0958 0.2445 -0.0000
v  0.0958 0.2415 0.0171
v  0.0958 0.2328 0.0321
v  0.0958 0.2195 0.0433
v  0.0958 0.2032 0.0492
v  0.0958 0.1859 0.0492
v  0.0958 0.1695 0.0433
v  0.0958 0.1562 0.0321
v  0.0958 0.1476 0.0171
v  0.0958 0.1945 -0.0000
# 116 vertices

vn 0.0000 0.0000 -1.0000
vn 0.0000 0.0000 1.0000
vn 0.0000 -1.0000 -0.0000
vn 1.0000 0.0000 -0.0000
vn 0.0000 1.0000 -0.0000
vn -1.0000 0.0000 -0.0000
vn -0.6954 -0.7186 -0.0000
vn 0.7186 -0.6954 -0.0000
vn 0.6954 0.7186 -0.0000
vn -0.7186 0.6954 -0.0000
vn 0.2227 -0.9749 -0.0000
vn 0.9749 0.2227 -0.0000
vn 0.9161 0.2093 -0.3420
vn 0.7468 0.1706 -0.6428
vn 0.4874 0.1114 -0.8660
vn 0.1693 0.0387 -0.9848
vn -0.1693 -0.0387 -0.9848
vn -0.4874 -0.1114 -0.8660
vn -0.7468 -0.1706 -0.6428
vn -0.9161 -0.2093 -0.3420
vn -0.9749 -0.2227 -0.0000
vn -0.9161 -0.2093 0.3420
vn -0.7468 -0.1706 0.6428
vn -0.4874 -0.1114 0.8660
vn -0.1693 -0.0387 0.9848
vn 0.1693 0.0387 0.9848
vn 0.4874 0.1114 0.8660
vn 0.7468 0.1706 0.6428
vn 0.9161 0.2093 0.3420
vn -0.2227 0.9749 -0.0000
vn 0.0000 -0.9397 -0.3420
vn 0.0000 -0.7660 -0.6428
vn 0.0000 -0.5000 -0.8660
vn 0.0000 -0.1736 -0.9848
vn 0.0000 0.1736 -0.9848
vn 0.0000 0.5000 -0.8660
vn 0.0000 0.7660 -0.6428
vn 0.0000 0.9397 -0.3420
vn 0.0000 0.9397 0.3420
vn 0.0000 0.7660 0.6428
vn 0.0000 0.5000 0.8660
vn 0.0000 0.1736 0.9848
vn 0.0000 -0.1736 0.9848
vn 0.0000 -0.5000 0.8660
vn 0.0000 -0.7660 0.6428
vn 0.0000 -0.9397 0.3420
# 46 vertex normals

vt 0.9102 0.0016 0.0000
vt 0.9102 0.8216 0.0000
vt 0.0902 0.8216 0.0000
vt 0.0902 0.0016 0.0000
vt 0.5002 0.0016 0.0000
vt 0.7508 0.0016 1.0000
vt 0.7052 0.0016 1.0000
vt 0.7963 0.0016 1.0000
vt 0.8419 0.0016 1.0000
vt 0.8874 0.0016 1.0000
vt 0.1130 0.0016 1.0000
vt 0.0674 0.0016 1.0000
vt 0.1585 0.0016 1.0000
vt 0.2041 0.0016 1.0000
vt 0.2496 0.0016 1.0000
vt 0.2952 0.0016 1.0000
vt 0.3408 0.0016 1.0000
vt 0.3863 0.0016 1.0000
vt 0.4319 0.0016 1.0000
vt 0.4774 0.0016 1.0000
vt 0.5230 0.0016 1.0000
vt 0.5685 0.0016 1.0000
vt 0.6141 0.0016 1.0000
vt 0.6596 0.0016 1.0000
vt 0.7508 0.8216 1.0000
vt 0.7052 0.8216 1.0000
vt 0.7963 0.8216 1.0000
vt 0.8419 0.8216 1.0000
vt 0.8874 0.8216 1.0000
vt 0.1130 0.8216 1.0000
vt 0.0674 0.8216 1.0000
vt 0.1585 0.8216 1.0000
vt 0.2041 0.8216 1.0000
vt 0.2496 0.8216 1.0000
vt 0.2952 0.8216 1.0000
vt 0.3408 0.8216 1.0000
vt 0.3863 0.8216 1.0000
vt 0.4319 0.8216 1.0000
vt 0.4774 0.8216 1.0000
vt 0.5230 0.8216 1.0000
vt 0.5685 0.8216 1.0000
vt 0.6141 0.8216 1.0000
vt 0.6596 0.8216 1.0000
vt 0.5002 0.8216 0.0000
vt 0.8298 0.9897 0.0000
vt 0.8298 0.8497 0.0000
vt 0.8604 0.8497 0.0000
vt 0.8604 0.9897 0.0000
vt 0.9233 0.8329 0.0000
vt 0.9233 0.9730 0.0000
vt 0.8930 0.9730 0.0000
vt 0.8930 0.8329 0.0000
vt 0.9866 0.8497 0.0000
vt 0.9866 0.9897 0.0000
vt 0.9562 0.9897 0.0000
vt 0.9562 0.8497 0.0000
# 56 texture coords

o Box002
g Box002
f 1/1/1 3/2/1 4/3/1 
f 4/3/1 2/4/1 1/1/1 
f 5/4/2 6/1/2 8/2/2 
f 8/2/2 7/3/2 5/4/2 
f 1/4/3 2/1/3 6/2/3 
f 6/2/3 5/3/3 1/4/3 
f 2/4/4 4/1/4 8/2/4 
f 8/2/4 6/3/4 2/4/4 
f 4/4/5 3/1/5 7/2/5 
f 7/2/5 8/3/5 4/4/5 
f 3/4/6 1/1/6 5/2/6 
f 5/2/6 7/3/6 3/4/6 
f 9/1/2 11/2/2 12/3/2 
f 12/3/2 10/4/2 9/1/2 
f 13/4/1 14/1/1 16/2/1 
f 16/2/1 15/3/1 13/4/1 
f 9/4/3 10/1/3 14/2/3 
f 14/2/3 13/3/3 9/4/3 
f 10/4/6 12/1/6 16/2/6 
f 16/2/6 14/3/6 10/4/6 
f 12/4/5 11/1/5 15/2/5 
f 15/2/5 16/3/5 12/4/5 
f 11/45/4 9/46/4 13/47/4 
f 13/47/4 15/48/4 11/45/4 
f 17/1/1 19/2/1 20/3/1 
f 20/3/1 18/4/1 17/1/1 
f 21/4/2 22/1/2 24/2/2 
f 24/2/2 23/3/2 21/4/2 
f 17/4/3 18/1/3 22/2/3 
f 22/2/3 21/3/3 17/4/3 
f 18/49/4 20/50/4 24/51/4 
f 24/51/4 22/52/4 18/49/4 
f 20/4/5 19/1/5 23/2/5 
f 23/2/5 24/3/5 20/4/5 
f 19/4/6 17/1/6 21/2/6 
f 21/2/6 23/3/6 19/4/6 
f 25/1/1 27/2/1 28/3/1 
f 28/3/1 26/4/1 25/1/1 
f 29/4/2 30/1/2 32/2/2 
f 32/2/2 31/3/2 29/4/2 
f 25/4/3 26/1/3 30/2/3 
f 30/2/3 29/3/3 25/4/3 
f 26/53/4 28/54/4 32/55/4 
f 32/55/4 30/56/4 26/53/4 
f 28/4/5 27/1/5 31/2/5 
f 31/2/5 32/3/5 28/4/5 
f 27/4/6 25/1/6 29/2/6 
f 29/2/6 31/3/6 27/4/6 
f 33/1/1 35/2/1 36/3/1 
f 36/3/1 34/4/1 33/1/1 
f 37/4/2 38/1/2 40/2/2 
f 40/2/2 39/3/2 37/4/2 
f 33/4/7 34/1/7 38/2/7 
f 38/2/7 37/3/7 33/4/7 
f 34/4/8 36/1/8 40/2/8 
f 40/2/8 38/3/8 34/4/8 
f 36/4/9 35/1/9 39/2/9 
f 39/2/9 40/3/9 36/4/9 
f 35/4/10 33/1/10 37/2/10 
f 37/2/10 39/3/10 35/4/10 
f 41/5/11 43/6/11 42/7/11 
f 41/5/11 44/8/11 43/6/11 
f 41/5/11 45/9/11 44/8/11 
f 41/5/11 46/10/11 45/9/11 
f 41/5/11 47/11/11 46/12/11 
f 41/5/11 48/13/11 47/11/11 
f 41/5/11 49/14/11 48/13/11 
f 41/5/11 50/15/11 49/14/11 
f 41/5/11 51/16/11 50/15/11 
f 41/5/11 52/17/11 51/16/11 
f 41/5/11 53/18/11 52/17/11 
f 41/5/11 54/19/11 53/18/11 
f 41/5/11 55/20/11 54/19/11 
f 41/5/11 56/21/11 55/20/11 
f 41/5/11 57/22/11 56/21/11 
f 41/5/11 58/23/11 57/22/11 
f 41/5/11 59/24/11 58/23/11 
f 41/5/11 42/7/11 59/24/11 
f 42/7/12 61/25/13 60/26/12 
f 42/7/12 43/6/13 61/25/13 
f 43/6/13 62/27/14 61/25/13 
f 43/6/13 44/8/14 62/27/14 
f 44/8/14 63/28/15 62/27/14 
f 44/8/14 45/9/15 63/28/15 
f 45/9/15 64/29/16 63/28/15 
f 45/9/15 46/10/16 64/29/16 
f 46/12/16 65/30/17 64/31/16 
f 46/12/16 47/11/17 65/30/17 
f 47/11/17 66/32/18 65/30/17 
f 47/11/17 48/13/18 66/32/18 
f 48/13/18 67/33/19 66/32/18 
f 48/13/18 49/14/19 67/33/19 
f 49/14/19 68/34/20 67/33/19 
f 49/14/19 50/15/20 68/34/20 
f 50/15/20 69/35/21 68/34/20 
f 50/15/20 51/16/21 69/35/21 
f 51/16/21 70/36/22 69/35/21 
f 51/16/21 52/17/22 70/36/22 
f 52/17/22 71/37/23 70/36/22 
f 52/17/22 53/18/23 71/37/23 
f 53/18/23 72/38/24 71/37/23 
f 53/18/23 54/19/24 72/38/24 
f 54/19/24 73/39/25 72/38/24 
f 54/19/24 55/20/25 73/39/25 
f 55/20/25 74/40/26 73/39/25 
f 55/20/25 56/21/26 74/40/26 
f 56/21/26 75/41/27 74/40/26 
f 56/21/26 57/22/27 75/41/27 
f 57/22/27 76/42/28 75/41/27 
f 57/22/27 58/23/28 76/42/28 
f 58/23/28 77/43/29 76/42/28 
f 58/23/28 59/24/29 77/43/29 
f 59/24/29 60/26/12 77/43/29 
f 59/24/29 42/7/12 60/26/12 
f 78/44/30 60/26/30 61/25/30 
f 78/44/30 61/25/30 62/27/30 
f 78/44/30 62/27/30 63/28/30 
f 78/44/30 63/28/30 64/29/30 
f 78/44/30 64/31/30 65/30/30 
f 78/44/30 65/30/30 66/32/30 
f 78/44/30 66/32/30 67/33/30 
f 78/44/30 67/33/30 68/34/30 
f 78/44/30 68/34/30 69/35/30 
f 78/44/30 69/35/30 70/36/30 
f 78/44/30 70/36/30 71/37/30 
f 78/44/30 71/37/30 72/38/30 
f 78/44/30 72/38/30 73/39/30 
f 78/44/30 73/39/30 74/40/30 
f 78/44/30 74/40/30 75/41/30 
f 78/44/30 75/41/30 76/42/30 
f 78/44/30 76/42/30 77/43/30 
f 78/44/30 77/43/30 60/26/30 
f 79/5/6 81/6/6 80/7/6 
f 79/5/6 82/8/6 81/6/6 
f 79/5/6 83/9/6 82/8/6 
f 79/5/6 84/10/6 83/9/6 
f 79/5/6 85/11/6 84/12/6 
f 79/5/6 86/13/6 85/11/6 
f 79/5/6 87/14/6 86/13/6 
f 79/5/6 88/15/6 87/14/6 
f 79/5/6 89/16/6 88/15/6 
f 79/5/6 90/17/6 89/16/6 
f 79/5/6 91/18/6 90/17/6 
f 79/5/6 92/19/6 91/18/6 
f 79/5/6 93/20/6 92/19/6 
f 79/5/6 94/21/6 93/20/6 
f 79/5/6 95/22/6 94/21/6 
f 79/5/6 96/23/6 95/22/6 
f 79/5/6 97/24/6 96/23/6 
f 79/5/6 80/7/6 97/24/6 
f 80/7/3 99/25/31 98/26/3 
f 80/7/3 81/6/31 99/25/31 
f 81/6/31 100/27/32 99/25/31 
f 81/6/31 82/8/32 100/27/32 
f 82/8/32 101/28/33 100/27/32 
f 82/8/32 83/9/33 101/28/33 
f 83/9/33 102/29/34 101/28/33 
f 83/9/33 84/10/34 102/29/34 
f 84/12/34 103/30/35 102/31/34 
f 84/12/34 85/11/35 103/30/35 
f 85/11/35 104/32/36 103/30/35 
f 85/11/35 86/13/36 104/32/36 
f 86/13/36 105/33/37 104/32/36 
f 86/13/36 87/14/37 105/33/37 
f 87/14/37 106/34/38 105/33/37 
f 87/14/37 88/15/38 106/34/38 
f 88/15/38 107/35/5 106/34/38 
f 88/15/38 89/16/5 107/35/5 
f 89/16/5 108/36/39 107/35/5 
f 89/16/5 90/17/39 108/36/39 
f 90/17/39 109/37/40 108/36/39 
f 90/17/39 91/18/40 109/37/40 
f 91/18/40 110/38/41 109/37/40 
f 91/18/40 92/19/41 110/38/41 
f 92/19/41 111/39/42 110/38/41 
f 92/19/41 93/20/42 111/39/42 
f 93/20/42 112/40/43 111/39/42 
f 93/20/42 94/21/43 112/40/43 
f 94/21/43 113/41/44 112/40/43 
f 94/21/43 95/22/44 113/41/44 
f 95/22/44 114/42/45 113/41/44 
f 95/22/44 96/23/45 114/42/45 
f 96/23/45 115/43/46 114/42/45 
f 96/23/45 97/24/46 115/43/46 
f 97/24/46 98/26/3 115/43/46 
f 97/24/46 80/7/3 98/26/3 
f 116/44/4 98/26/4 99/25/4 
f 116/44/4 99/25/4 100/27/4 
f 116/44/4 100/27/4 101/28/4 
f 116/44/4 101/28/4 102/29/4 
f 116/44/4 102/31/4 103/30/4 
f 116/44/4 103/30/4 104/32/4 
f 116/44/4 104/32/4 105/33/4 
f 116/44/4 105/33/4 106/34/4 
f 116/44/4 106/34/4 107/35/4 
f 116/44/4 107/35/4 108/36/4 
f 116/44/4 108/36/4 109/37/4 
f 116/44/4 109/37/4 110/38/4 
f 116/44/4 110/38/4 111/39/4 
f 116/44/4 111/39/4 112/40/4 
f 116/44/4 112/40/4 113/41/4 
f 116/44/4 113/41/4 114/42/4 
f 116/44/4 114/42/4 115/43/4 
f 116/44/4 115/43/4 98/26/4 
# 204 faces

