# 3ds Max Wavefront OBJ Exporter v0.97b - (c)2007 guruware
# File Created: 16.12.2019 11:45:17

#
# object Sphere001
#

v  0.0000 0.5000 -0.0000
v  -0.0000 -0.0000 -0.5000
v  -0.5000 -0.0000 0.0000
v  0.0000 -0.0000 0.5000
v  0.5000 -0.0000 -0.0000
v  0.0000 -0.5000 -0.0000
# 6 vertices

vn -0.0000 1.0000 0.0000
vn -0.0000 0.0000 -1.0000
vn -1.0000 -0.0000 0.0000
vn -0.0000 0.0000 1.0000
vn 1.0000 0.0000 -0.0000
vn 0.0000 -1.0000 0.0000
# 6 vertex normals

vt 0.0000 1.0000 0.0000
vt 0.2500 1.0000 0.0000
vt 0.5000 1.0000 0.0000
vt 0.7500 1.0000 0.0000
vt 1.0000 1.0000 0.0000
vt 0.0000 0.5000 0.0000
vt 0.2500 0.5000 0.0000
vt 0.5000 0.5000 0.0000
vt 0.7500 0.5000 0.0000
vt 1.0000 0.5000 0.0000
vt 0.0000 0.0000 0.0000
vt 0.2500 0.0000 0.0000
vt 0.5000 0.0000 0.0000
vt 0.7500 0.0000 0.0000
vt 1.0000 0.0000 0.0000
# 15 texture coords

o Sphere001
g Sphere001
f 1/1/1 2/6/2 3/7/3 
f 1/2/1 3/7/3 4/8/4 
f 1/3/1 4/8/4 5/9/5 
f 1/4/1 5/9/5 2/10/2 
f 6/11/6 3/7/3 2/6/2 
f 6/12/6 4/8/4 3/7/3 
f 6/13/6 5/9/5 4/8/4 
f 6/14/6 2/10/2 5/9/5 
# 8 faces

