# 3ds Max Wavefront OBJ Exporter v0.97b - (c)2007 guruware
# File Created: 30.10.2019 09:58:51

#
# object Box001
#

v  -1.0000 -1.0000 1.0000
v  1.0000 -1.0000 1.0000
v  -1.0000 -1.0000 -1.0000
v  1.0000 -1.0000 -1.0000
v  -1.0000 1.0000 1.0000
v  1.0000 1.0000 1.0000
v  -1.0000 1.0000 -1.0000
v  1.0000 1.0000 -1.0000
# 8 vertices

vn 0.0000 1.0000 -0.0000
vn 0.0000 -1.0000 -0.0000
vn 0.0000 0.0000 -1.0000
vn -1.0000 0.0000 -0.0000
vn 0.0000 0.0000 1.0000
vn 1.0000 0.0000 -0.0000
# 6 vertex normals

vt 1.0000 1.0000 0.0000
vt 1.0000 0.0000 0.0000
vt 0.0000 1.0000 0.0000
vt 0.0000 0.0000 0.0000
# 4 texture coords

o Box001
g Box001
f 3/1/1 1/2/1 4/3/1 
f 2/4/1 4/3/1 1/2/1 
f 6/2/2 5/4/2 8/1/2 
f 7/3/2 8/1/2 5/4/2 
f 2/2/3 1/4/3 6/1/3 
f 5/3/3 6/1/3 1/4/3 
f 4/2/4 2/4/4 8/1/4 
f 6/3/4 8/1/4 2/4/4 
f 3/2/5 4/4/5 7/1/5 
f 8/3/5 7/1/5 4/4/5 
f 1/2/6 3/4/6 5/1/6 
f 7/3/6 5/1/6 3/4/6 
# 12 faces

